<svg width="1017" height="323" viewBox="0 0 1017 323" fill="none" xmlns="http://www.w3.org/2000/svg">
<g clip-path="url(#clip0_1409_25294)">
<path opacity="0.5" d="M-2 288.447C-2 288.447 78.6129 199.676 130.551 199.676C182.49 199.676 161.931 227.921 267.972 227.921C374.013 227.921 422.165 167.9 516.844 167.9C611.524 167.9 732.173 283.403 833.886 250.618C935.599 217.833 929.106 179.5 1027.57 179.5C1126.04 179.5 1156.88 226.912 1239.66 200.684C1322.43 174.457 1366.8 69.0413 1442.54 60.4668" stroke="#F2E6E6" stroke-width="2" stroke-linecap="round" stroke-dasharray="13.36 21.59"/>
<path opacity="0.2" d="M-2 323C-2 323 78.6129 234.229 130.551 234.229C182.49 234.229 161.931 262.475 267.972 262.475C374.013 262.475 422.165 202.453 516.844 202.453C611.524 202.453 732.173 317.956 833.886 285.172C935.599 252.387 929.106 214.054 1027.57 214.054C1126.04 214.054 1156.88 261.466 1239.66 235.238C1322.43 209.01 1366.8 103.595 1442.54 95.0205" stroke="#F2E6E6" stroke-width="2" stroke-linecap="round" stroke-dasharray="13.36 21.59"/>
<path d="M-2 248.352C-2 248.352 108.91 160.59 160.849 160.59C212.787 160.59 194.393 199.676 300.434 199.676C406.475 199.676 363.734 160.846 479.513 139.406C595.293 117.966 720.811 232.46 822.524 199.676C924.237 166.891 931.812 160.59 1030.28 160.59C1128.75 160.59 1156.88 186.818 1239.66 160.59C1322.43 134.362 1338.12 74.5895 1401.96 29.1953" stroke="#F2E6E6" stroke-width="2" stroke-linecap="round" stroke-dasharray="13.36 21.59"/>
<path d="M-1.99951 208.258C-1.99951 208.258 43.9877 188.571 101.337 138.141C158.685 87.711 170.588 161.343 276.629 161.343C382.67 161.343 339.388 159.83 424.87 120.496C510.352 81.1618 745.158 200.18 814.95 129.062C884.743 57.9448 963.192 138.141 1061.66 138.141C1160.13 138.141 1156.88 146.723 1239.66 120.496C1322.43 94.2679 1330.01 35.7598 1386.82 -12.1641" stroke="#FAE9EF" stroke-width="2" stroke-linecap="round" stroke-dasharray="13.36 21.59"/>
</g>
<defs>
<clipPath id="clip0_1409_25294">
<rect width="1019" height="335" fill="white" transform="translate(-2 -12)"/>
</clipPath>
</defs>
</svg>
