<svg width="24" height="24" viewBox="0 0 24 24" fill="none" xmlns="http://www.w3.org/2000/svg">
<g id="arrow_back_ios">
<path id="arrow_back_ios_2" d="M8.89627 11.9966L15.7296 5.47374C15.9099 5.30166 15.9977 5.09905 15.993 4.86591C15.9884 4.63279 15.8959 4.43019 15.7156 4.25811C15.5354 4.08604 15.3231 4 15.0789 4C14.8347 4 14.6224 4.08604 14.4422 4.25811L7.48324 10.8875C7.31923 11.0441 7.19768 11.2195 7.11861 11.4137C7.03954 11.608 7 11.8023 7 11.9966C7 12.1909 7.03954 12.3851 7.11861 12.5794C7.1977 12.7737 7.31924 12.9491 7.48324 13.1056L14.4422 19.7484C14.6224 19.9204 14.837 20.0043 15.0859 19.9998C15.3348 19.9954 15.5493 19.9071 15.7296 19.7351C15.9099 19.563 16 19.3604 16 19.1272C16 18.8941 15.9099 18.6915 15.7296 18.5194L8.89627 11.9966Z" fill="#2E2E2E"/>
<mask id="mask0_1466_8728" style="mask-type:alpha" maskUnits="userSpaceOnUse" x="0" y="0" width="24" height="24">
<rect id="Bounding box" width="24" height="24" transform="matrix(1 -8.74228e-08 -8.74228e-08 -1 0 24)" fill="#FEFEFE"/>
</mask>
<g mask="url(#mask0_1466_8728)">
</g>
</g>
</svg>
